<svg xmlns="http://www.w3.org/2000/svg" viewBox="0 0 410 404"><defs><linearGradient id="a" x1="6.6" x2="36.5" y1="33" y2="2.9" gradientUnits="userSpaceOnUse"><stop offset="0" stop-color="#FFEA83"/><stop offset="0.083" stop-color="#FFDD35"/><stop offset="0.32" stop-color="#FFA800"/></linearGradient><linearGradient id="b" x1="18.4" x2="39.4" y1="36.3" y2="14.2" gradientUnits="userSpaceOnUse"><stop offset="0" stop-color="#007CFF"/><stop offset="0.21" stop-color="#3C8CFF"/><stop offset="1" stop-color="#09F"/></linearGradient></defs><path fill="#41D1FF" d="M399.3 59.2L215.5 388.4c-5.6 9.9-19.8 10-25.6 0L10.7 59.4c-5.9-10.1 1.8-22.6 13-21.5l186 18.7c1.2.1 2.5.1 3.7 0l172.9-18.5c11.3-1.2 19.2 11.4 13.2 21.5z"/><path fill="#BD34FE" d="M292.5 1.3L156.3 27.5c-2 .4-3.4 2-3.6 4l-8.6 142.2a4 4 0 004.9 4.1l39.6-7a4 4 0 014.6 4l-11.7 76.4a4 4 0 005.9 4.1l24.5-12.4a4 4 0 015.8 3.5l-1.7 81.3c-.3 13.7 17.3 19.4 24.6 7.4l1.7-2.8 105.7-211.8a4 4 0 00-4.3-5.7l-40.6 7.2a4 4 0 01-4.7-4.6l19-91.7a4 4 0 00-4.6-4.7z"/><path fill="#FFEA83" d="M188.4 91.6l-54.4-8.6a4 4 0 01-3.4-4.4l4.7-72.5c.2-3.3 4-5.2 6.8-3.2l24.2 17.4a4 4 0 005.1-.3l22.2-19.4c2.6-2.2 6.7-.7 7.1 2.7l6.4 53.4c.3 2.5-1.7 4.7-4.2 4.6l-12.4-.2a4 4 0 00-4 3.5l-1 23.7a4 4 0 01-4.7 3.7z"/><path fill="url(#a)" d="M115.7 178.9l-50.1-7.4a4 4 0 01-3.4-4.4l3.9-60.2c.2-3.3 4-5.2 6.8-3.2l23.8 17.1a4 4 0 005.1-.3l22.6-19.7c2.5-2.2 6.6-.7 7 2.7l6 50.8a4 4 0 01-4.2 4.4l-12.9.8a4 4 0 00-3.9 3.5l-1 22.4a4 4 0 01-4.7 3.7z"/><path fill="url(#b)" d="M323.2 137.8l-50.1-7.5a4 4 0 01-3.4-4.4l3.9-60.3c.2-3.3 4-5.2 6.8-3.2l23.8 17.1a4 4 0 005.1-.2l22.6-19.8c2.5-2.2 6.6-.7 6.9 2.7l6 50.9a4 4 0 01-4.1 4.4l-12.9.7a4 4 0 00-3.9 3.6l-1 22.4a4 4 0 01-4.7 3.6z"/></svg>